<svg xmlns="http://www.w3.org/2000/svg" width="21" height="17"><path d="M17.3 10.5H3.8c.4-3.1 3.3-5.6 6.8-5.6s6.4 2.5 6.7 5.6m-7.1-7.6v.9C6 4 2.6 7.2 2.6 11c0 .3.3.6.6.6H18a.6.6 0 00.6-.6c0-4-3.4-7.1-7.6-7.3V3c.5-.3 1-.8 1-1.4a1.4 1.4 0 10-2.8 0c0 .6.4 1.1 1 1.3M2.5 15.2l.6-1.4h15l.5 1.4H2.5zM19 13a.6.6 0 00-.6-.4H2.7a.6.6 0 00-.5.4L1 15.6a.6.6 0 00.6.8h18a.6.6 0 00.5-.8L19 13zm1.5-4.2c-.6-2.2-1.9-4-3.8-5.4a.4.4 0 10-.4.7c1.7 1.2 3 3 3.4 4.9a.4.4 0 10.8-.2M1.5 9c.4-2 1.7-3.7 3.4-5a.4.4 0 000-.5.4.4 0 00-.5 0A9.6 9.6 0 00.6 8.7a.4.4 0 00.4.5.4.4 0 00.4-.3" fill="#292F37" fill-rule="evenodd"/></svg>